<svg xmlns="http://www.w3.org/2000/svg" width="58" height="48" viewBox="0 0 58 48" fill="none"><path d="M0.585835 29.3065L39.719 29.3065L35.2815 34.809C33.9109 36.5086 33.1634 38.6262 33.1634 40.8096C33.1634 41.9068 33.3523 42.9959 33.7219 44.029L34.457 46.0842C34.9461 47.4516 36.6835 47.8583 37.7287 46.85L55.0093 30.1802C55.61 29.6007 56.1282 28.932 56.5411 28.2067C58.057 25.5436 58.0707 22.2546 56.5548 19.5916C56.1306 18.8465 55.5985 18.1683 54.9756 17.5791L37.0465 0.61972C36.4124 0.0199623 35.3993 0.0981216 34.8648 0.788036C33.7619 2.21144 33.1634 3.96103 33.1634 5.7617V6.72136C33.1634 9.3069 34.0803 11.8087 35.7511 13.7818L39.719 18.4677L10.8301 18.4677C8.82705 18.4677 6.89901 19.2298 5.43726 20.5994C3.13129 22.7598 1.37545 25.4405 0.316242 28.4176L0.196369 28.7545C0.10062 29.0236 0.300182 29.3065 0.585835 29.3065Z" fill="white"/></svg>